# xmcd CD database file
#
# Track frame offsets:
#	150
#	21493
#	35067
#	50512
#	71490
#	81255
#	102052
#	129111
#	145354
#	160596
#
# Disc length: 2414 seconds
#
# Revision: 1
# Processed by: cddbd v1.5.2PL0 Copyright (c) Steve Scherf et al.
# Submitted via: CDex 1.51
#
DISCID=82096c0a
DTITLE=Scottish Guitar Quartet - Fait Accompli
DYEAR=2002
DGENRE=Jazz
TTITLE0=Fait Accompli
TTITLE1=Three Horse Race
TTITLE2=When Spring Breaks Through
TTITLE3=Dance of the Gypsy King
TTITLE4=The Romance Within You
TTITLE5=Sidewardly Mobile
TTITLE6=From Dawn to Dust
TTITLE7=Song for Kevin
TTITLE8=After Hours
TTITLE9=Simplicity Itself
EXTD=YEAR: 2002
EXTT0=
EXTT1=
EXTT2=
EXTT3=
EXTT4=
EXTT5=
EXTT6=
EXTT7=
EXTT8=
EXTT9=
PLAYORDER=
